<svg xmlns="http://www.w3.org/2000/svg" viewBox="0 0 900 470" role="img" aria-labelledby="title desc">
<title id="title">安全主要3機種の年次出荷推移</title>
<desc id="desc">2014～2025年のNNZ30WPUR、NNZ30KAUJ、NNZ30WPUの年次出荷台数。主要2機種は2015～2017年が高く、その後は減少または横ばい。</desc>
<rect width="900" height="470" fill="#fff"/>
<g font-family="Arial, 'Yu Gothic', sans-serif" fill="#202a35"><text x="54" y="39" font-size="22" font-weight="700">安全 主要3機種の年次出荷台数</text><text x="54" y="62" font-size="13" fill="#586574">2014～2025年 / 台</text></g>
<g stroke="#dce2e8" stroke-width="1"><path d="M82 355H835 M82 290H835 M82 225H835 M82 160H835 M82 95H835"/></g>
<g font-family="Arial, sans-serif" font-size="11" fill="#5d6875" text-anchor="end"><text x="72" y="359">0</text><text x="72" y="294">20</text><text x="72" y="229">40</text><text x="72" y="164">60</text><text x="72" y="99">80</text></g>
<g font-family="Arial, sans-serif" font-size="10" fill="#586574" text-anchor="middle"><text x="110" y="374">2014</text><text x="172" y="374">2015</text><text x="234" y="374">2016</text><text x="296" y="374">2017</text><text x="358" y="374">2018</text><text x="420" y="374">2019</text><text x="482" y="374">2020</text><text x="544" y="374">2021</text><text x="606" y="374">2022</text><text x="668" y="374">2023</text><text x="730" y="374">2024</text><text x="792" y="374">2025</text></g>
<path d="M110 355.0 L172 166.5 L234 228.3 L296 166.5 L358 247.8 L420 241.3 L482 234.8 L544 260.8 L606 208.8 L668 290.0 L730 290.0 L792 280.3" fill="none" stroke="#137c78" stroke-width="3" stroke-linecap="round" stroke-linejoin="round"/>
<path d="M110 345.3 L172 251.0 L234 150.3 L296 137.8 L358 228.3 L420 257.5 L482 293.3 L544 290.0 L606 267.3 L668 290.0 L730 312.8 L792 306.3" fill="none" stroke="#e18a3b" stroke-width="3" stroke-linecap="round" stroke-linejoin="round"/>
<path d="M110 342.0 L172 351.8 L234 286.8 L296 306.3 L358 303.0 L420 325.8 L482 338.8 L544 348.5 L606 338.8 L668 335.5 L730 296.5 L792 332.3" fill="none" stroke="#4c78a8" stroke-width="3" stroke-linecap="round" stroke-linejoin="round"/>
<g fill="#137c78"><circle cx="110" cy="355" r="3.5"/><circle cx="172" cy="166.5" r="3.5"/><circle cx="234" cy="228.3" r="3.5"/><circle cx="296" cy="166.5" r="3.5"/><circle cx="358" cy="247.8" r="3.5"/><circle cx="420" cy="241.3" r="3.5"/><circle cx="482" cy="234.8" r="3.5"/><circle cx="544" cy="260.8" r="3.5"/><circle cx="606" cy="208.8" r="3.5"/><circle cx="668" cy="290" r="3.5"/><circle cx="730" cy="290" r="3.5"/><circle cx="792" cy="280.3" r="3.5"/></g>
<g fill="#e18a3b"><circle cx="110" cy="345.3" r="3.5"/><circle cx="172" cy="251" r="3.5"/><circle cx="234" cy="150.3" r="3.5"/><circle cx="296" cy="137.8" r="3.5"/><circle cx="358" cy="228.3" r="3.5"/><circle cx="420" cy="257.5" r="3.5"/><circle cx="482" cy="293.3" r="3.5"/><circle cx="544" cy="290" r="3.5"/><circle cx="606" cy="267.3" r="3.5"/><circle cx="668" cy="290" r="3.5"/><circle cx="730" cy="312.8" r="3.5"/><circle cx="792" cy="306.3" r="3.5"/></g>
<g fill="#4c78a8"><circle cx="110" cy="342" r="3.5"/><circle cx="172" cy="351.8" r="3.5"/><circle cx="234" cy="286.8" r="3.5"/><circle cx="296" cy="306.3" r="3.5"/><circle cx="358" cy="303" r="3.5"/><circle cx="420" cy="325.8" r="3.5"/><circle cx="482" cy="338.8" r="3.5"/><circle cx="544" cy="348.5" r="3.5"/><circle cx="606" cy="338.8" r="3.5"/><circle cx="668" cy="335.5" r="3.5"/><circle cx="730" cy="296.5" r="3.5"/><circle cx="792" cy="332.3" r="3.5"/></g>
<g font-family="Arial, 'Yu Gothic', sans-serif" font-size="12" fill="#394452"><path d="M250 420h28" stroke="#137c78" stroke-width="3"/><text x="285" y="424">NNZ30WPUR</text><path d="M420 420h28" stroke="#e18a3b" stroke-width="3"/><text x="455" y="424">NNZ30KAUJ</text><path d="M590 420h28" stroke="#4c78a8" stroke-width="3"/><text x="625" y="424">NNZ30WPU</text></g>
</svg>